<svg width="140" height="45" viewBox="0 0 140 45" fill="none" xmlns="http://www.w3.org/2000/svg">
<g clip-path="url(#clip0_4232_15477)">
<path d="M42.7503 37.9404L38.2141 33.1659L41.0533 30.1477C41.3144 29.8749 41.4123 29.4827 41.3144 29.1075C41.2165 28.7324 40.9228 28.4595 40.5801 28.3572L32.5521 26.3451L24.5078 24.333C24.1652 24.2477 23.8062 24.35 23.5451 24.6229C23.3004 24.8786 23.2025 25.2708 23.2841 25.6289L25.2911 34.0355L27.2981 42.4421C27.3796 42.8173 27.6733 43.1071 28.016 43.2094C28.375 43.3118 28.7503 43.2095 29.0113 42.9366L31.8505 39.9355L36.3866 44.71C36.5824 44.9146 36.8435 45.017 37.1046 45.017C37.382 45.017 37.643 44.8976 37.8225 44.693L42.7666 39.458C43.1582 39.0147 43.1582 38.3497 42.7503 37.9404ZM36.6803 41.6236L32.6174 37.3436C32.4542 37.156 32.2095 37.0708 31.9647 37.0708C31.72 37.0708 31.4915 37.1731 31.312 37.3606L29.2561 39.5262L27.8528 33.6263C27.8528 33.6263 26.9391 29.8066 26.4169 27.6069L32.1605 29.0564C32.1605 29.0564 35.6687 29.9431 37.7899 30.4717L35.734 32.6373C35.3913 33.0124 35.3913 33.6092 35.734 33.9844L39.8132 38.2644L36.6803 41.6236Z" fill="#F9BE00"/>
<path d="M27.9504 15.8242C27.2651 15.1762 26.9877 14.119 27.3956 12.5161C27.9341 10.4017 29.4189 4.51876 30.5448 0H26.8898C25.7476 4.56991 24.1975 10.7598 23.6427 12.9595C22.8432 16.0459 23.3 18.3138 24.638 19.5756C26.6613 21.4854 30.1205 20.4111 30.4958 20.2747C30.4795 20.2747 37.6916 17.8875 43.0436 16.097V12.0045L31.4749 16.0629C30.3653 16.4551 28.8478 16.6768 27.9504 15.8242ZM31.4259 12.2433C31.1322 12.3115 31.2464 12.0045 31.2627 11.9193C31.638 10.3846 33.2045 4.02425 34.2161 0.0170519H31.6217C30.6101 4.0413 29.0436 10.3164 28.6683 11.834C28.2278 13.5904 28.4399 14.3236 28.8478 14.784C29.2394 15.2274 30.3 15.3979 31.687 14.9034C31.687 14.9034 38.638 12.3797 43.0599 10.7939V8.20197L31.4259 12.2433Z" fill="#ED7700"/>
<path d="M11.5524 16.0629L0 12.0216V16.1141C5.3683 17.8875 12.5478 20.2747 12.5315 20.2747C12.9068 20.4282 16.3823 21.5025 18.4056 19.5756C19.7436 18.3138 20.2005 16.0459 19.4009 12.9595C18.8462 10.7598 17.296 4.56991 16.1538 0H12.4988C13.6247 4.51876 15.1096 10.4017 15.648 12.5161C16.0559 14.119 15.7786 15.1762 15.0932 15.8242C14.1795 16.6768 12.662 16.4551 11.5524 16.0629ZM0 8.20197V10.7768C4.42191 12.3797 11.3566 14.8693 11.373 14.8863C12.7436 15.3808 13.8205 15.2103 14.2121 14.767C14.6037 14.3236 14.8159 13.5733 14.3916 11.817C14 10.2994 12.4336 4.02425 11.4056 0H8.81119C9.80653 4.0072 11.3893 10.3846 11.7646 11.9022C11.7809 12.0045 11.9114 12.2944 11.6014 12.2262L0 8.20197Z" fill="#6FB92C"/>
<path d="M15.0925 29.1752C15.7779 29.8232 16.0553 30.8804 15.6473 32.4833C15.1089 34.5807 13.6403 40.4806 12.4981 44.9994H16.1532C17.2953 40.4295 18.8455 34.2396 19.4166 32.0399C20.2161 28.9535 19.7592 26.6856 18.4212 25.4238C16.3979 23.514 12.9387 24.5882 12.5471 24.7247C12.5634 24.7247 5.36761 27.0949 0.015625 28.8853V32.9948L11.5681 28.9365C12.6613 28.5443 14.1788 28.3056 15.0925 29.1752ZM11.6007 32.7561C11.8944 32.6879 11.7802 32.9948 11.7639 33.0801C11.3886 34.6148 9.80584 40.9751 8.8105 44.9823H11.4212C12.4329 40.9581 14.0156 34.683 14.3909 33.1654C14.8315 31.409 14.6194 30.6758 14.2277 30.2154C13.8361 29.772 12.7755 29.6015 11.3886 30.096C11.3886 30.096 4.45385 32.6026 0.015625 34.1885V36.7804L11.6007 32.7561Z" fill="#0071BD"/>
<path d="M138.238 10.4191L139.119 6.83817C139.119 6.83817 139.266 6.27545 139.07 5.98557C138.858 5.66158 138.401 5.67864 138.401 5.67864H136.296L135.121 10.402H127.844C127.844 10.402 127.404 10.402 127.126 10.5896C126.849 10.7942 126.751 11.2035 126.751 11.2035L126.637 11.7662H134.779L132.103 22.6964H122.672L125.837 9.90751L130.895 5.64453H126.425L120.746 10.8624L119.751 15.0913L122.166 13.0621L119.751 22.7306H112.865L110.825 20.7355L118.756 15.8245L119.425 12.687H115.802H111.494L112.18 9.89046H120.306L120.616 8.40694H112.555L113.224 5.67864H110.124L109.439 8.40694H101.247L100.937 9.89046H109.063L108.362 12.687H100.888C100.888 12.687 100.432 12.6699 100.154 12.8916C99.8767 13.1133 99.7951 13.5566 99.7951 13.5566L99.6809 14.1705H116.08L108.737 18.6551L104.902 14.8867H100.399L105.898 20.3774L102.128 22.6964H95.8954L93.4968 15.0913H97.6903C97.6903 15.0913 98.294 15.1083 98.5714 14.8526C98.8324 14.6138 98.914 14.2387 98.914 14.2387L99.0446 13.6248H92.1425L93.5131 11.4251H99.4525L99.583 10.8965L99.5993 10.8283L99.8115 9.94161H99.7788V9.92456H96.1728L97.8697 7.1792H100.138L100.252 6.6847C100.399 6.01967 100.105 5.69569 99.2893 5.69569H98.7998C97.8371 5.69569 97.0539 5.69569 97.0539 5.69569H96.3686L93.7252 9.92456H91.7019L90.4129 5.69569H77.3103L76.984 7.19626H78.5178L76.0865 17.7343H71.3056L73.0842 10.061H68.1891L73.7206 7.21331V7.1792H73.7695L73.9164 6.36071L74.0795 5.71274H55.5597C54.6786 5.71274 54.2544 6.03673 54.1238 6.63354C53.9933 7.23036 53.7812 8.13411 53.7812 8.13411H56.4572C56.4572 8.13411 56.5714 7.62255 56.6693 7.19626H69.5271L63.9793 10.061H57.3383L54.4665 22.7476H53.1285L56.0166 10.061H53.3569C53.3569 10.061 50.3383 23.3274 50.2893 23.4979C50.1751 24.0435 50.2893 24.4698 51.1052 24.4698C51.921 24.4698 85.5504 24.4698 85.5504 24.4698L90.9187 15.6711L93.6599 24.4698H104.919L107.986 22.5089L109.944 24.4698H133.392C134.926 24.4698 135.138 23.1568 135.138 23.1568L137.912 11.8003H138.874C139.038 11.8003 139.282 11.8003 139.511 11.6468C139.837 11.4422 139.902 10.9818 139.902 10.9818L140.017 10.4191H138.238ZM81.1611 7.1792H83.4292L82.8091 9.92456H80.5411L81.1611 7.1792ZM64.5504 19.2008H68.0422L67.2427 22.7306H63.7509L64.5504 19.2008ZM59.6716 11.5274H63.5551L63.0655 13.6078H59.1821L59.6716 11.5274ZM58.8721 15.0913H62.7555L62.1355 17.7343H58.252L58.8721 15.0913ZM57.9257 19.2008H61.8091L61.0259 22.7306H57.1425L57.9257 19.2008ZM68.3523 17.7343H64.8604L65.4968 15.0913H68.9886L68.3523 17.7343ZM69.2986 13.6248H65.8068L66.2963 11.5445H69.7882L69.2986 13.6248ZM79.9047 22.7306H70.2124L70.9956 19.2008H80.6879L79.9047 22.7306ZM80.9979 17.7343H78.7299L79.3499 15.0913H81.618L80.9979 17.7343ZM81.9443 13.6248H79.6763L80.1821 11.4251H82.4502L81.9443 13.6248ZM89.0259 13.6248H85.1751L84.8488 15.0913H88.1774L83.5923 22.7306H82.597L86.1215 7.1792H88.0306L88.8627 9.92456H86.0236L85.6809 11.4081H90.3965L89.0259 13.6248Z" fill="#0071BD"/>
<path d="M130.26 19.7812H131.908L132.283 18.3318H131.19L129.329 12.9434H127.225C127.225 12.9434 129.052 18.3488 129.362 19.082C129.672 19.7982 130.26 19.7812 130.26 19.7812Z" fill="#0071BD"/>
<path d="M85.6148 28.2734L83.4609 37.5838H85.729L87.8828 28.2734H85.6148Z" fill="#0071BD"/>
<path d="M104.837 28.2729H100.382H98.8158H98.1142L96.8741 33.6272L96.613 34.8208L96.4988 35.4177L96.3846 36.0145H96.303L96.0256 35.2471L95.7482 34.4969C95.5198 33.9 95.324 33.3885 95.1445 32.9792L93.1212 28.2559H89.2703L87.1328 37.5833H89.4009L90.641 32.246L90.902 31.0183L91.0163 30.4044L91.1305 29.7905H91.2121L91.4405 30.4556L91.6689 31.1206C91.8811 31.7515 92.0442 32.2119 92.1585 32.4506L94.3939 37.5662H98.2447L100.121 29.4836H104.592L104.837 28.2729Z" fill="#0071BD"/>
<path d="M133.735 28.2734L131.352 30.7289C131.189 30.8994 130.961 31.1552 130.667 31.4792L130.324 31.8543L129.982 32.2295H129.917L129.753 31.8543L129.59 31.4792C129.443 31.1041 129.329 30.8653 129.264 30.7289L128.024 28.2734H127.861H125.397H122.819L123.031 29.5012H126.033L128.383 34.037L127.861 36.2708H123.765L122.378 29.5012H122.394L122.182 28.2734H122.133H118.723L112.588 37.5838H114.986L116.145 35.7933H121.317L121.66 37.5838H123.276H124.01H127.534H127.844H129.819L130.635 34.037L136.394 28.2734H133.735ZM116.993 34.4974L120.143 29.6376L121.089 34.4974H116.993Z" fill="#0071BD"/>
<path d="M78.2891 28.2734H76.021L73.8672 37.5838H81.7483L82.1073 36.015H76.5105L78.2891 28.2734Z" fill="#0071BD"/>
<path d="M68.1885 36.014L69.9834 28.2895H67.7153L65.9204 36.014H64.9251L63.6034 29.5002H64.2234L64.4845 28.2725H63.3423H60.8948C60.4869 28.2725 60.1605 28.3918 59.9321 28.5453C59.7199 28.6817 59.5731 28.8352 59.4915 28.9545C59.4426 29.0398 59.4099 29.091 59.4099 29.091L59.0183 29.6707H61.3517L61.368 29.6537L62.3144 34.5135H58.2025L60.4379 31.069H58.1046L53.7969 37.5999H56.1955L57.354 35.8094H62.5102L62.8528 37.5999H65.2025H65.5125H68.4496H73.3936L73.7526 36.014H68.4496H68.1885Z" fill="#0071BD"/>
<path d="M113.223 33.7632C113.256 33.7291 113.484 33.5586 113.615 33.3028C113.925 32.8594 114.17 32.2456 114.349 31.4782C114.643 30.2164 114.545 29.3808 114.088 28.9375C113.631 28.4941 112.587 28.2725 110.971 28.2725H110.368H105.554L105.277 29.5002H107.529H108.198H110.335C111.265 29.5002 111.722 29.6537 111.934 29.9094C111.934 29.9265 111.951 29.9265 111.951 29.9435C112.032 30.0459 112.081 30.1482 112.13 30.2505C112.163 30.3357 112.179 30.4381 112.195 30.5574C112.195 30.5745 112.195 30.5915 112.195 30.6256C112.195 30.6597 112.195 30.6768 112.195 30.7109C112.195 30.7109 112.195 30.7109 112.195 30.7279C112.195 30.7961 112.179 30.8644 112.163 30.9667C112.13 31.1883 112.081 31.4782 111.967 31.8022C111.869 32.075 111.738 32.382 111.526 32.6548C111.461 32.723 111.396 32.7742 111.314 32.8253C110.988 33.0129 110.319 33.0982 109.291 33.0982H106.713L107.202 30.9155H104.951L103.4 37.5999H105.668L106.37 34.5987H109.046H109.568C111.2 34.5987 112.342 34.3941 112.962 33.9849C113.044 33.8996 113.142 33.8314 113.223 33.7632Z" fill="#0071BD"/>
</g>
<defs>
<clipPath id="clip0_4232_15477">
<rect width="140" height="45" fill="white"/>
</clipPath>
</defs>
</svg>
